# xmcd CD database file
#
# Track frame offsets:
#	150
#	23056
#	36457
#	47790
#	62692
#	75040
#	94604
#	119447
#	135754
#	149490
#	169796
#	183176
#
# Disc length: 2655 seconds
#
# Revision: 0
# Processed by: cddbd v1.5.2PL0 Copyright (c) Steve Scherf et al.
# Submitted via: CDex 1.70
#
DISCID=930a5d0c
DTITLE=Taxiwars - Taxiwars
DYEAR=2015
DGENRE=Jazz
TTITLE0=Death Ride Through Wet Snow
TTITLE1=Taxiwars
TTITLE2=Let's Get Killed
TTITLE3=Questionsong
TTITLE4=Who That
TTITLE5=Borgerhout Shuffle
TTITLE6=Pearlescent
TTITLE7=It Went Boom
TTITLE8=To The Hyphenated Poets
TTITLE9=Recent Winds
TTITLE10=Your Soul Or Mine
TTITLE11=Colosseum
EXTD=YEAR: 2015
EXTT0=
EXTT1=
EXTT2=
EXTT3=
EXTT4=
EXTT5=
EXTT6=
EXTT7=
EXTT8=
EXTT9=
EXTT10=
EXTT11=
PLAYORDER=
